<?xml version="1.0" encoding="utf-8"?><svg viewBox="0 0 800 800" xmlns="http://www.w3.org/2000/svg" xmlns:xlink="http://www.w3.org/1999/xlink"><style>:root>svg{display:none}:root>svg:target{display:block}</style><svg viewBox="0 0 256 256" preserveAspectRatio="xMidYMid" id="bootstrapIcon" xmlns="http://www.w3.org/2000/svg"><path d="M0 222.991C0 241.223 14.779 256 33.009 256H222.99C241.223 256 256 241.221 256 222.991V33.01C256 14.777 241.221 0 222.991 0H33.01C14.777 0 0 14.779 0 33.009V222.99Z" fill="#563D7C"/><path d="M106.158 113.238V76.985h31.911c3.04 0 5.97.253 8.792.76 2.822.506 5.319 1.41 7.49 2.713 2.17 1.303 3.907 3.112 5.21 5.427 1.302 2.316 1.954 5.283 1.954 8.9 0 6.513-1.954 11.217-5.862 14.111-3.907 2.895-8.9 4.342-14.979 4.342h-34.516ZM72.075 50.5v155h75.112c6.947 0 13.713-.868 20.298-2.605 6.585-1.737 12.446-4.414 17.584-8.032 5.137-3.618 9.226-8.286 12.265-14.002 3.04-5.717 4.559-12.483 4.559-20.298 0-9.697-2.352-17.982-7.055-24.856-4.704-6.875-11.832-11.687-21.384-14.437 6.947-3.328 12.194-7.598 15.74-12.808 3.545-5.21 5.318-11.722 5.318-19.538 0-7.236-1.194-13.314-3.582-18.235-2.388-4.92-5.753-8.864-10.095-11.831-4.341-2.967-9.551-5.102-15.63-6.404-6.078-1.303-12.808-1.954-20.189-1.954H72.075Zm34.083 128.515v-42.549h37.121c7.381 0 13.315 1.7 17.802 5.102 4.486 3.401 6.73 9.081 6.73 17.041 0 4.053-.688 7.381-2.063 9.986-1.375 2.605-3.22 4.668-5.536 6.187-2.315 1.52-4.993 2.605-8.032 3.257-3.04.65-6.223.976-9.552.976h-36.47Z" fill="#FFF"/></svg><svg viewBox="0 0 32 32" id="cssIcon" xmlns="http://www.w3.org/2000/svg"><path style="fill:#1572b6" d="M5.902 27.201 3.656 2h24.688l-2.249 25.197L15.985 30 5.902 27.201z"/><path style="fill:#33a9dc" d="m16 27.858 8.17-2.265 1.922-21.532H16v23.797z"/><path style="fill:#fff" d="M16 13.191h4.09l.282-3.165H16V6.935h7.75l-.074.829-.759 8.518H16v-3.091z"/><path style="fill:#ebebeb" d="m16.019 21.218-.014.004-3.442-.93-.22-2.465H9.24l.433 4.853 6.331 1.758.015-.004v-3.216z"/><path style="fill:#fff" d="m19.827 16.151-.372 4.139-3.447.93v3.216l6.336-1.756.047-.522.537-6.007h-3.101z"/><path style="fill:#ebebeb" d="M16.011 6.935v3.091H8.545l-.062-.695-.141-1.567-.074-.829h7.743zM16 13.191v3.091H12.601l-.062-.695-.14-1.567-.074-.829H16z"/></svg><svg viewBox="0 0 32 32" id="djangoIcon" xmlns="http://www.w3.org/2000/svg"><path d="M14.135 4H18.1v18.169a26.218 26.218 0 0 1-5.143.535c-4.842-.005-7.362-2.168-7.362-6.322 0-4 2.673-6.6 6.816-6.6a6.448 6.448 0 0 1 1.724.2V4Zm0 9.142a3.992 3.992 0 0 0-1.337-.2c-2 0-3.163 1.223-3.163 3.366 0 2.087 1.107 3.239 3.138 3.239a9.355 9.355 0 0 0 1.362-.1v-6.3Z" style="fill:#44b78b"/><path d="M24.4 10.059v9.1c0 3.133-.235 4.639-.923 5.938A6.316 6.316 0 0 1 20.237 28l-3.678-1.733a5.708 5.708 0 0 0 3.141-2.629c.566-1.121.745-2.42.745-5.837v-7.742ZM20.441 4.02h3.964v4.028h-3.964z" style="fill:#44b78b"/></svg><svg viewBox="0 0 32 32" fill="none" id="gitIcon" xmlns="http://www.w3.org/2000/svg"><path d="M2.585 17.413a1.999 1.999 0 0 1 0-2.826L14.587 2.585c.78-.78 2.046-.78 2.826 0l12.002 12.002c.78.78.78 2.046 0 2.826L17.413 29.415c-.78.78-2.046.78-2.826 0L2.585 17.413Z" fill="#EE513B"/><path d="m12.149 5.062-1.215 1.215 3.139 3.139A2.126 2.126 0 0 0 15.25 12.3v7.679a2.126 2.126 0 1 0 1.718.097v-7.765l3 3a2.125 2.125 0 1 0 1.283-1.147l-3.221-3.223a2.125 2.125 0 0 0-2.66-2.66l-3.221-3.22Z" fill="#fff"/></svg><svg viewBox="-16 0 288 288" preserveAspectRatio="xMidYMid" id="graphqlIcon" xmlns="http://www.w3.org/2000/svg"><path d="m152.576 32.963 59.146 34.15a25.819 25.819 0 0 1 5.818-4.604c12.266-7.052 27.912-2.865 35.037 9.402 7.052 12.267 2.865 27.912-9.402 35.037a25.698 25.698 0 0 1-6.831 2.72v68.325a25.7 25.7 0 0 1 6.758 2.702c12.34 7.125 16.527 22.771 9.402 35.038-7.052 12.266-22.771 16.453-35.038 9.402a25.464 25.464 0 0 1-6.34-5.147l-58.786 33.94a25.671 25.671 0 0 1 1.295 8.08c0 14.103-11.458 25.636-25.635 25.636-14.177 0-25.635-11.46-25.635-25.636 0-2.52.362-4.954 1.037-7.253l-59.13-34.14a25.824 25.824 0 0 1-5.738 4.52c-12.34 7.051-27.986 2.864-35.038-9.402-7.051-12.267-2.864-27.913 9.402-35.038a25.71 25.71 0 0 1 6.758-2.703v-68.324a25.698 25.698 0 0 1-6.831-2.72C.558 99.897-3.629 84.178 3.423 71.911c7.052-12.267 22.77-16.454 35.037-9.402a25.82 25.82 0 0 1 5.79 4.575l59.163-34.159a25.707 25.707 0 0 1-1.048-7.29C102.365 11.46 113.823 0 128 0c14.177 0 25.635 11.459 25.635 25.635 0 2.548-.37 5.007-1.059 7.328Zm-6.162 10.522 59.287 34.23a25.599 25.599 0 0 0 2.437 19.831c3.609 6.278 9.488 10.44 16.013 12.062v68.41c-.333.081-.664.17-.993.264L145.725 44.17c.234-.224.464-.452.689-.684Zm-36.123.7-77.432 134.11a25.824 25.824 0 0 0-1.01-.27v-68.417c6.525-1.622 12.404-5.784 16.013-12.062a25.6 25.6 0 0 0 2.427-19.869l59.27-34.22c.239.247.483.49.732.727Zm24.872 6.075 77.414 134.08a25.492 25.492 0 0 0-4.513 5.757 25.7 25.7 0 0 0-2.702 6.758H50.64a25.71 25.71 0 0 0-2.704-6.758 25.825 25.825 0 0 0-4.506-5.724l77.429-134.107A25.715 25.715 0 0 0 128 51.27c2.487 0 4.89-.352 7.163-1.01Zm11.795 194.478 58.902-34.008a25.865 25.865 0 0 1-.473-1.682H50.607c-.082.333-.171.663-.266.992l59.19 34.175A25.558 25.558 0 0 1 128 236.373a25.564 25.564 0 0 1 18.958 8.365Z" fill="#E535AB" fill-rule="evenodd"/></svg><svg viewBox="0 0 20 20" id="htmlIcon" xmlns="http://www.w3.org/2000/svg"><path fill="none" d="M0 0h20v20H0z"/><path d="M4 16v-2H2v2H1v-5h1v2h2v-2h1v5H4zm3 0v-4H5.6v-1h3.7v1H8v4H7zm3 0v-5h1l1.4 3.4h.1L14 11h1v5h-1v-3.1h-.1l-1.1 2.5h-.6l-1.1-2.5H11V16h-1zm9 0h-3v-5h1v4h2v1zM9.4 4.2 7.1 6.5l2.3 2.3-.6 1.2-3.5-3.5L8.8 3l.6 1.2zm1.2 4.6 2.3-2.3-2.3-2.3.6-1.2 3.5 3.5-3.5 3.5-.6-1.2z" fill="#F7622C"/></svg><svg viewBox="0 0 24 24" fill="none" id="jsIcon" xmlns="http://www.w3.org/2000/svg"><path d="M12 23.956c-.342 0-.66-.089-.957-.243l-3.029-1.738c-.455-.242-.227-.33-.09-.374.614-.198.728-.242 1.366-.595.068-.044.16-.022.228.022l2.323 1.343c.09.044.205.044.273 0l9.087-5.084c.09-.044.136-.132.136-.242V6.899c0-.11-.045-.198-.136-.242l-9.087-5.061c-.091-.044-.205-.044-.273 0L2.754 6.657c-.091.044-.137.154-.137.242v10.146c0 .088.046.198.137.242l2.482 1.387c1.344.66 2.186-.11 2.186-.88V7.78c0-.132.114-.264.274-.264h1.161c.137 0 .273.11.273.264v10.013c0 1.739-.979 2.751-2.687 2.751-.524 0-.934 0-2.095-.55l-2.391-1.32A1.847 1.847 0 0 1 1 17.067V6.921c0-.66.364-1.276.957-1.606L11.044.23a2.095 2.095 0 0 1 1.912 0l9.088 5.084c.592.33.956.946.956 1.606v10.146c0 .66-.364 1.276-.956 1.607l-9.088 5.083a2.4 2.4 0 0 1-.956.198Zm2.801-6.977c-3.985 0-4.805-1.76-4.805-3.257 0-.132.114-.264.273-.264h1.184c.137 0 .25.088.25.22.183 1.166.707 1.738 3.121 1.738 1.913 0 2.733-.418 2.733-1.408 0-.572-.228-.99-3.211-1.276-2.483-.243-4.031-.77-4.031-2.685 0-1.783 1.548-2.84 4.145-2.84 2.915 0 4.35.969 4.532 3.082a.347.347 0 0 1-.069.198c-.045.044-.113.088-.182.088h-1.184a.265.265 0 0 1-.25-.198c-.274-1.21-.98-1.607-2.847-1.607-2.096 0-2.346.704-2.346 1.232 0 .639.296.837 3.12 1.189 2.801.352 4.122.858 4.122 2.75-.023 1.938-1.662 3.038-4.555 3.038Z" fill="#F7DF1E"/></svg><svg viewBox="0 -26 256 256" preserveAspectRatio="xMidYMid" id="materialUiIcon" xmlns="http://www.w3.org/2000/svg"><path fill="#00B0FF" d="M0 110.848V0l96 55.424v36.95l-64-36.95v73.899z"/><path fill="#0081CB" d="M96 55.424 192 0v110.848l-64 36.95-32-18.475 64-36.95V55.424l-64 36.95z"/><path fill="#00B0FF" d="M96 129.323v36.949l64 36.95v-36.95z"/><path d="m160 203.221 96-55.424V73.9l-32 18.474v36.95l-64 36.949v36.95Zm64-147.797v-36.95L256 0v36.95l-32 18.474Z" fill="#0081CB"/></svg><svg viewBox="0 0 32 32" id="nestMiddlewareIcon" xmlns="http://www.w3.org/2000/svg"><defs><linearGradient id="ia" x1="15.997" y1="993" x2="15.997" y2="1021" gradientTransform="matrix(1 0 0 -1 0 1023)" gradientUnits="userSpaceOnUse"><stop offset="0" stop-color="#ffb199"/><stop offset="1" stop-color="#ff0844"/></linearGradient></defs><path d="M18.488 2a1.753 1.753 0 0 0-.564.1c1.611 1.058-.28 2.594.6 3.9A2.234 2.234 0 0 1 19.6 3.765c.285-.237.467-.322.406-.714C19.91 2.409 19.054 2 18.488 2Zm2.3.414c-.222 1.123-.5 1.164-1.323 1.887a1.82 1.82 0 0 0-.528 2.191c-3.4-1.32-7.758-2.118-10.953.166-1.149.821-1.851 2-3.268 2.481-.916.313-1.816.221-2.388 1.129a1.413 1.413 0 0 0 .056 1.832c.17.175.5.287.636.465.079.1.077.2.152.333a2.586 2.586 0 0 0 .564.828c.146.121.652.239.738.368.107.161-.173.8.062.9.159.073.622-.744.667-.816-.092.643-.213 1.784.51.834.343-.451.364-.6.941-.7a8.36 8.36 0 0 1 9.739 7.506c-.108-.5-.761-1.3-1.369-1.11-.259.08-.355.527-.525.786a3.75 3.75 0 0 1-.785.868 4.657 4.657 0 0 0-.072-1.452c-.182.748-.547 1.989-1.466 1.788a1.652 1.652 0 0 1-1.328-1.142c-.119-.76.684-1.651-.607-1.714-2.59-.127-1.991 3.682-.462 4.675a3.272 3.272 0 0 0-1.015.283 6.893 6.893 0 0 0 10.276-4.911 7.046 7.046 0 0 1-.646 4.79 6.9 6.9 0 0 1-1.23 1.668c-.3.3-.894.63-1.089.941a13.427 13.427 0 0 0 3.525-.968A11.647 11.647 0 0 1 15.1 30a11.59 11.59 0 0 0 9.3-5.909 11.657 11.657 0 0 1-1.945 4.668 11.531 11.531 0 0 0 4.975-7.783 11.655 11.655 0 0 1 .209 3.5A12.418 12.418 0 0 0 29.53 13.91a15.755 15.755 0 0 0-1.689-3.962 14.838 14.838 0 0 0-.941-1.394c-.133-.173-.844-.806-.844-1q-.009.029-.015 0c0 3.266-3.5 5.311-6.431 4.463a5 5 0 0 0 4.56-4.288 4.988 4.988 0 0 0-3.381-5.315Z" style="fill-rule:evenodd;fill:url(#ia)"/><path d="M26.4 18.6a2.82 2.82 0 0 1 1.41.81 3.8 3.8 0 0 1 .54.72s-1 .69-1.57 1.06a.49.49 0 0 1-.2-.22 1.283 1.283 0 0 0-1.06-.64.92.92 0 0 0-1.1.7.893.893 0 0 0-.022.212.818.818 0 0 0 .1.42 2.218 2.218 0 0 0 1.31.88c1.62.7 2.31 1.16 2.74 1.81a3.283 3.283 0 0 1 .26 2.76 3 3 0 0 1-2.51 1.84 6.875 6.875 0 0 1-1.72 0 4.142 4.142 0 0 1-2.3-1.2 3.958 3.958 0 0 1-.59-.87l.21-.13.84-.48.65-.38.14.2a2.987 2.987 0 0 0 .86.82 2.1 2.1 0 0 0 2.2-.11 1 1 0 0 0 .13-1.25 3.742 3.742 0 0 0-1.55-.9 5.584 5.584 0 0 1-2.18-1.38 2.988 2.988 0 0 1-.62-1.13 4.517 4.517 0 0 1 0-1.44 2.761 2.761 0 0 1 2.32-2.15 5.735 5.735 0 0 1 1.712.048Zm-5.31.94v.93h-2.94v8.36h-2.08v-8.36h-2.94v-.91a8.486 8.486 0 0 1 0-.93h8v.92Z" style="fill:#007acc"/></svg><svg viewBox="0 0 32 32" fill="none" id="nodeJsIcon" xmlns="http://www.w3.org/2000/svg"><path d="M17.172 2.299a2.452 2.452 0 0 0-2.345 0L4.152 8.189C3.46 8.553 2.992 9.297 3 10.07v11.864c-.005.787.486 1.538 1.197 1.897 1.022.544 2.015 1.143 3.055 1.65 1.203.59 2.706.721 3.923.105.988-.51 1.427-1.646 1.425-2.689.008-3.915.002-7.83.003-11.746.024-.174-.107-.36-.297-.356-.454-.007-.91-.004-1.364-.001-.172-.017-.34.126-.327.299-.006 3.89.001 7.781-.004 11.672a1.318 1.318 0 0 1-.872 1.237c-1.198.42-4.617-1.8-4.617-1.8a.337.337 0 0 1-.193-.33V10.13a.362.362 0 0 1 .225-.365c3.546-1.952 7.09-3.908 10.637-5.862a.384.384 0 0 1 .418.001c3.546 1.953 7.091 3.908 10.638 5.86a.366.366 0 0 1 .224.366c0 3.913.001 7.828-.001 11.741a.337.337 0 0 1-.19.334c-3.514 1.941-7.067 3.82-10.549 5.818-.151.087-.323.186-.494.09-.915-.507-1.82-1.033-2.732-1.544-.1-.062-.226-.089-.33-.02-.408.216-.793.39-1.263.577-.66.261-.554.368.04.714 1.068.604 2.137 1.206 3.204 1.81.703.439 1.646.47 2.372.065 3.558-1.961 7.116-3.925 10.675-5.886.708-.361 1.202-1.109 1.197-1.896V10.069c.007-.756-.442-1.487-1.114-1.856-3.57-1.974-7.142-3.942-10.713-5.914Z" fill="#8CC84B"/><path d="M22.542 11.206c-1.397-.747-3.058-.787-4.61-.69-1.122.112-2.301.421-3.118 1.225-.838.808-1.02 2.113-.622 3.168.285.745 1.003 1.23 1.745 1.486.957.338 1.96.442 2.966.546.916.096 1.833.19 2.713.463.36.12.78.302.89.693.101.464-.01 1.003-.387 1.325-1.195.946-4.521.801-5.702.056-.478-.317-.684-.879-.768-1.414-.009-.167-.143-.32-.324-.307a68.556 68.556 0 0 0-1.36 0c-.159-.014-.323.099-.332.26-.093 2.452 2.158 3.52 4.27 3.756 1.208.115 2.441.108 3.63-.15.893-.204 1.789-.579 2.404-1.267.758-.836.907-2.081.567-3.123-.26-.777-1.003-1.276-1.762-1.532-1.033-.354-2.258-.545-3.193-.634-1.36-.13-2.976-.076-3.361-.97-.153-.468-.023-1.049.407-1.337 1.138-.771 3.453-.669 4.632-.092.54.27.854.827.983 1.389.024.165.135.337.326.33.45.008.901.002 1.351.002.155.011.325-.076.355-.234-.02-1.174-.619-2.376-1.7-2.949Z" fill="#8CC84B"/></svg><svg viewBox="0 0 32 32" fill="none" id="pythonIcon" xmlns="http://www.w3.org/2000/svg"><path fill-rule="evenodd" clip-rule="evenodd" d="M13.016 2C10.82 2 9.038 3.725 9.038 5.852v2.667h6.886v.74H5.978C3.781 9.26 2 10.984 2 13.111v5.778c0 2.127 1.781 3.852 3.978 3.852h2.295v-3.26c0-2.127 1.781-3.851 3.978-3.851h7.345c1.859 0 3.366-1.46 3.366-3.26V5.852C22.962 3.725 21.18 2 18.984 2h-5.968Zm-.918 4.74c.76 0 1.377-.596 1.377-1.333 0-.736-.616-1.333-1.377-1.333-.76 0-1.377.597-1.377 1.333 0 .737.617 1.334 1.377 1.334Z" fill="url(#ka)"/><path fill-rule="evenodd" clip-rule="evenodd" d="M18.983 30c2.197 0 3.979-1.724 3.979-3.852v-2.666h-6.886v-.741h9.946c2.197 0 3.978-1.725 3.978-3.852V13.11c0-2.127-1.781-3.852-3.978-3.852h-2.295v3.26c0 2.127-1.782 3.851-3.979 3.851h-7.344c-1.859 0-3.366 1.46-3.366 3.26v6.518c0 2.128 1.781 3.852 3.978 3.852h5.967Zm.918-4.74c-.76 0-1.377.596-1.377 1.333 0 .736.617 1.333 1.377 1.333.761 0 1.378-.597 1.378-1.333 0-.737-.617-1.334-1.378-1.334Z" fill="url(#kb)"/><defs><linearGradient id="ka" x1="12.481" y1="2" x2="12.481" y2="22.741" gradientUnits="userSpaceOnUse"><stop stop-color="#327EBD"/><stop offset="1" stop-color="#1565A7"/></linearGradient><linearGradient id="kb" x1="19.519" y1="9.259" x2="19.519" y2="30" gradientUnits="userSpaceOnUse"><stop stop-color="#FFDA4B"/><stop offset="1" stop-color="#F9C600"/></linearGradient></defs></svg><svg viewBox="0 0 32 32" fill="none" id="reactIcon" xmlns="http://www.w3.org/2000/svg"><path d="M18.679 15.976c0-1.435-1.2-2.598-2.679-2.598-1.48 0-2.679 1.163-2.679 2.598 0 1.434 1.2 2.597 2.679 2.597 1.48 0 2.679-1.163 2.679-2.597Z" fill="#53C1DE"/><path fill-rule="evenodd" clip-rule="evenodd" d="M24.7 11.154c.566-2.23 1.277-6.363-1.23-7.764-2.495-1.395-5.742 1.278-7.456 2.883-1.71-1.589-5.048-4.25-7.552-2.845-2.494 1.4-1.725 5.465-1.147 7.708-2.327.64-6.315 2.02-6.315 4.84 0 2.811 3.984 4.313 6.297 4.953-.58 2.255-1.311 6.262 1.186 7.659 2.514 1.405 5.842-1.194 7.572-2.816 1.726 1.614 4.942 4.23 7.437 2.83 2.504-1.406 1.852-5.484 1.273-7.74 2.242-.641 6.235-2.11 6.235-4.886 0-2.793-4.01-4.184-6.3-4.822Zm-.284 8.513a28.65 28.65 0 0 0-1.519-3.685 28.625 28.625 0 0 0 1.46-3.631c1.679.472 5.361 1.55 5.361 3.625 0 2.094-3.533 3.183-5.302 3.691Zm-1.566 7.859c-1.862 1.045-4.628-1.456-5.902-2.645a29.352 29.352 0 0 0 2.514-3.096c1.45-.125 2.821-.329 4.064-.607.407 1.595 1.194 5.298-.676 6.348Zm-13.726-.015c-1.863-1.041-1.011-4.616-.584-6.278 1.228.264 2.589.453 4.042.568.83 1.132 1.7 2.173 2.576 3.085-1.083 1.015-4.163 3.671-6.034 2.625ZM2.28 15.976c0-2.102 3.661-3.173 5.378-3.643a29.257 29.257 0 0 0 1.462 3.673 29.689 29.689 0 0 0-1.48 3.726c-1.637-.454-5.36-1.653-5.36-3.756ZM9.104 4.504c1.87-1.05 4.77 1.506 6.012 2.656a29.97 29.97 0 0 0-2.556 3.066c-1.41.127-2.761.33-4.003.604-.466-1.81-1.321-5.278.547-6.326Zm11.275 7.073c.957.117 1.875.273 2.736.464-.259.803-.581 1.643-.96 2.504a41.165 41.165 0 0 0-1.776-2.968Zm-4.365-3.529c.591.621 1.183 1.314 1.766 2.066a38.897 38.897 0 0 0-3.546 0 27.651 27.651 0 0 1 1.78-2.066Zm-6.157 6.496a26.884 26.884 0 0 1-.954-2.517 29.762 29.762 0 0 1 2.72-.452 36.303 36.303 0 0 0-1.766 2.97Zm1.793 5.922a28.076 28.076 0 0 1-2.764-.431c.264-.83.59-1.692.972-2.568a36.306 36.306 0 0 0 1.792 2.999Zm4.4 3.525a28.142 28.142 0 0 1-1.805-2.094c1.188.045 2.378.045 3.566-.006a26.611 26.611 0 0 1-1.761 2.1Zm6.117-6.569c.4.886.739 1.744 1.007 2.559a27.97 27.97 0 0 1-2.798.462c.639-.982 1.239-1.99 1.79-3.02Zm-3.42 3.172a41.486 41.486 0 0 1-5.463.01 34.923 34.923 0 0 1-2.746-4.598 34.908 34.908 0 0 1 2.73-4.59c1.82-.133 3.65-.134 5.469 0a39.137 39.137 0 0 1 2.739 4.572 39.146 39.146 0 0 1-2.729 4.606ZM22.83 4.467c1.87 1.046 1.038 4.76.63 6.376a31.597 31.597 0 0 0-4.012-.615 29.379 29.379 0 0 0-2.536-3.069c1.258-1.175 4.066-3.728 5.918-2.692Z" fill="#53C1DE"/></svg><svg viewBox="0 0 32 32" fill="none" id="reduxIcon" xmlns="http://www.w3.org/2000/svg"><path d="M21.787 21.556a2.114 2.114 0 0 0 1.909-2.177c-.039-1.126-.993-2.027-2.138-2.027h-.077a2.115 2.115 0 0 0-2.061 2.177c.038.563.267 1.051.61 1.389-1.297 2.515-3.283 4.354-6.26 5.893-2.024 1.05-4.123 1.426-6.223 1.163-1.718-.225-3.054-.976-3.894-2.214-1.222-1.84-1.336-3.829-.305-5.818.725-1.426 1.87-2.477 2.596-3.003a19.962 19.962 0 0 1-.497-1.914c-5.535 3.941-4.963 9.27-3.283 11.786 1.26 1.876 3.818 3.04 6.643 3.04.763 0 1.527-.075 2.29-.263 4.887-.938 8.59-3.79 10.69-8.032Zm6.719-4.654c-2.901-3.34-7.177-5.18-12.064-5.18h-.61a2.102 2.102 0 0 0-1.871-1.126h-.077a2.115 2.115 0 0 0-2.061 2.177c.038 1.126.992 2.027 2.138 2.027h.076a2.15 2.15 0 0 0 1.87-1.276h.688c2.901 0 5.65.825 8.132 2.44 1.908 1.238 3.283 2.852 4.046 4.804.65 1.576.61 3.115-.076 4.429-1.07 1.989-2.863 3.077-5.23 3.077-1.527 0-2.978-.45-3.742-.788a22.52 22.52 0 0 1-1.718 1.351c1.642.751 3.322 1.164 4.925 1.164 3.665 0 6.376-1.99 7.406-3.979 1.107-2.177 1.031-5.93-1.832-9.12ZM9.112 22.194c.039 1.126.993 2.027 2.138 2.027h.077a2.115 2.115 0 0 0 2.061-2.177c-.038-1.126-.993-2.027-2.138-2.027h-.076c-.076 0-.191 0-.267.037-1.566-2.552-2.215-5.33-1.985-8.332.152-2.252.916-4.204 2.252-5.818 1.107-1.388 3.245-2.064 4.696-2.101 4.046-.076 5.764 4.879 5.879 6.868.496.113 1.336.376 1.909.563-.459-6.08-4.276-9.233-7.941-9.233-3.436 0-6.605 2.44-7.865 6.043-1.756 4.804-.61 9.42 1.527 13.061-.19.263-.305.676-.267 1.089Z" fill="#764ABC"/></svg><svg viewBox="0 0 32 32" id="scssIcon" xmlns="http://www.w3.org/2000/svg"><path d="M16.171 18.7c-.481.221-1.008.509-2.063 1.088-.4.225-.818.45-1.207.662-.027-.027-.055-.061-.082-.089-2.087-2.23-5.947-3.805-5.783-6.8.061-1.091.436-3.955 7.413-7.433 5.742-2.83 10.311-2.046 11.1-.307 1.134 2.479-2.449 7.092-8.379 7.761a4.469 4.469 0 0 1-3.751-.948c-.314-.341-.361-.361-.477-.293-.191.1-.068.409 0 .586a3.5 3.5 0 0 0 2.141 1.684 11.4 11.4 0 0 0 6.956-.689c3.594-1.391 6.4-5.258 5.578-8.5-.825-3.287-6.281-4.371-11.443-2.537a26 26 0 0 0-8.79 5.047c-2.844 2.66-3.294 4.972-3.11 5.94.662 3.437 5.4 5.674 7.3 7.331-.1.055-.184.1-.259.143-.948.471-4.562 2.36-5.463 4.358-1.023 2.264.164 3.887.948 4.105a5.832 5.832 0 0 0 6.281-2.544 6.3 6.3 0 0 0 .559-5.8 5.03 5.03 0 0 1 .716-.477c.484-.286.945-.568 1.354-.786a10.475 10.475 0 0 1 4.475-.989c3.246.382 3.887 2.407 3.764 3.26a2.157 2.157 0 0 1-1.03 1.459c-.225.143-.3.191-.28.293.027.15.136.143.327.116a2.535 2.535 0 0 0 1.766-2.257c.1-2-1.807-4.194-5.183-4.174a7.753 7.753 0 0 0-2.946.587q-.225.093-.437.2Zm-4.825 7.839c-1.078 1.173-2.578 1.616-3.226 1.241-.7-.4-.423-2.135.9-3.376a17.18 17.18 0 0 1 2.53-1.889c.157-.1.389-.232.668-.4l.075-.041.164-.1a4.658 4.658 0 0 1-1.111 4.565Z" style="fill:#cd6799"/></svg><svg viewBox="0 0 32 32" id="typescriptIcon" xmlns="http://www.w3.org/2000/svg"><path d="M23.827 8.243a4.424 4.424 0 0 1 2.223 1.281 5.853 5.853 0 0 1 .852 1.143c.011.045-1.534 1.083-2.471 1.662-.034.023-.169-.124-.322-.35a2.014 2.014 0 0 0-1.67-1c-1.077-.074-1.771.49-1.766 1.433a1.3 1.3 0 0 0 .153.666c.237.49.677.784 2.059 1.383 2.544 1.095 3.636 1.817 4.31 2.843a5.158 5.158 0 0 1 .416 4.333 4.764 4.764 0 0 1-3.932 2.815 10.9 10.9 0 0 1-2.708-.028 6.531 6.531 0 0 1-3.616-1.884 6.278 6.278 0 0 1-.926-1.371 2.655 2.655 0 0 1 .327-.208c.158-.09.756-.434 1.32-.761l1.024-.6.214.312a4.771 4.771 0 0 0 1.35 1.292 3.3 3.3 0 0 0 3.458-.175 1.545 1.545 0 0 0 .2-1.974c-.276-.395-.84-.727-2.443-1.422a8.8 8.8 0 0 1-3.349-2.055 4.687 4.687 0 0 1-.976-1.777 7.116 7.116 0 0 1-.062-2.268 4.332 4.332 0 0 1 3.644-3.374 9 9 0 0 1 2.691.084Zm-8.343 1.483.011 1.454h-4.63v13.148H7.6V11.183H2.97V9.755a13.986 13.986 0 0 1 .04-1.466c.017-.023 2.832-.034 6.245-.028l6.211.017Z" style="fill:#007acc"/></svg><svg fill="#fff" viewBox="0 0 32 32" id="wordpressIcon" xmlns="http://www.w3.org/2000/svg"><path d="M16 1.004C7.718 1.004 1.004 7.718 1.004 16S7.718 30.996 16 30.996 30.996 24.282 30.996 16c-.011-8.277-6.718-14.984-14.995-14.996H16zM2.518 16v-.011c0-1.983.43-3.865 1.203-5.559l-.034.084 6.428 17.619C5.582 25.895 2.519 21.306 2.518 16zM16 29.476h-.009a13.5 13.5 0 0 1-3.895-.571l.096.025 4.045-11.754 4.143 11.355c.035.075.067.136.103.195l-.005-.009a13.235 13.235 0 0 1-4.467.761h-.01zm1.859-19.813c.809-.037 1.54-.131 1.54-.131a.563.563 0 0 0-.058-1.123l-.027.001h.001s-2.193.169-3.599.169c-1.33 0-3.561-.187-3.561-.187a.555.555 0 0 0-.096 1.106h.002s.675.076 1.406.112l2.099 5.755-2.962 8.847-4.91-14.583c.811-.037 1.542-.125 1.542-.125a.562.562 0 0 0-.053-1.12l-.029.001h.001s-2.182.172-3.591.172c-.25 0-.547-.01-.862-.019 2.488-3.641 6.616-6.003 11.296-6.013h.023c3.508 0 6.701 1.346 9.093 3.549l-.009-.009c-.057-.004-.114-.011-.176-.011a2.334 2.334 0 0 0-2.264 2.395v-.003a6.29 6.29 0 0 0 1.334 3.175l-.01-.012a7.027 7.027 0 0 1 1.112 3.715v.005a16.209 16.209 0 0 1-1.064 4.457l.038-.11-1.343 4.48-4.874-14.508zm9.974-.13c1.037 1.866 1.647 4.092 1.647 6.46 0 4.95-2.665 9.277-6.639 11.625l-.063.034 4.118-11.905a12.525 12.525 0 0 0 1.025-4.819v-.039c0-.479-.032-.95-.093-1.412l.006.054z"/></svg></svg>
